<svg width="1170" height="151" viewBox="0 0 1170 151" fill="none" xmlns="http://www.w3.org/2000/svg">
<path d="M1011.9 93.3189H1012.14C1020.64 88.1214 1060.8 63.5514 1069.31 58.3539C1070.49 57.6451 1071.67 56.9364 1072.85 56.2276C1077.81 53.6289 1083.72 50.3214 1084.43 45.3601C1084.66 43.9426 1083.96 41.1076 1082.3 41.1076H1019.7C1018.28 41.1076 1012.84 35.2013 1013.08 33.7838L1016.86 9.45004C1016.86 9.21379 1017.33 8.50505 1017.57 8.26878L1023 3.54378C1023.24 3.30754 1023.95 3.07129 1024.42 3.07129H1164.52C1167.35 3.07129 1170.42 6.61504 1169.95 9.45004L1164.28 46.0689C1163.81 49.3764 1152.94 58.3539 1150.58 59.7714L1083.01 101.115C1080.41 102.769 1079.94 103.714 1079.7 106.313L1079.47 106.785C1079.47 107.73 1079.23 108.675 1079.23 108.911L1081.12 110.565H1147.51C1149.4 110.565 1155.78 118.125 1155.78 119.306L1152 142.223C1151.52 145.058 1147.51 148.602 1144.67 148.602H998.197C995.362 148.602 992.291 145.058 992.763 142.223L998.433 107.021C998.906 103.478 1009.3 95.4452 1011.9 93.3189Z" fill="white"/>
<path d="M823.638 93.3189H823.874C832.379 88.1214 872.542 63.5514 881.047 58.3539C882.228 57.6451 883.409 56.9364 884.59 56.2276C889.552 53.6289 895.458 50.3214 896.167 45.3601C896.403 43.9426 895.694 41.1076 894.04 41.1076H831.434C830.017 41.1076 824.583 35.2013 824.819 33.7838L828.599 9.45004C828.599 9.21379 829.072 8.50505 829.308 8.26878L834.742 3.54378C834.978 3.30754 835.687 3.07129 836.159 3.07129H976.256C979.091 3.07129 982.162 6.61504 981.689 9.45004L976.019 46.0689C975.547 49.3764 964.679 58.3539 962.317 59.7714L894.749 101.115C892.15 102.769 891.678 103.714 891.442 106.313L891.205 106.785C891.205 107.73 890.969 108.675 890.969 108.911L892.859 110.565H959.246C961.136 110.565 967.514 118.125 967.514 119.306L963.734 142.223C963.262 145.058 959.246 148.602 956.411 148.602H809.935C807.1 148.602 804.029 145.058 804.502 142.223L810.172 107.021C810.644 103.478 821.039 95.4452 823.638 93.3189Z" fill="white"/>
<path d="M639.705 8.26878L644.903 3.54378C645.139 3.30754 646.084 3.07129 646.32 3.07129H789.724C789.961 3.07129 790.669 3.30754 790.906 3.54378L794.686 8.26878C794.922 8.50505 795.158 9.21379 795.158 9.45004L791.142 33.7838C790.906 35.2013 783.582 41.1076 782.164 41.1076H693.57C690.735 41.1076 686.719 47.4864 686.247 50.0851C686.01 52.9201 686.247 57.1726 689.554 57.1726H750.507C752.397 57.1726 758.775 64.7326 758.775 65.9139L755.232 87.1764C754.759 90.9564 747.435 95.9177 744.364 95.9177H685.065C682.939 95.9177 679.159 100.879 678.214 103.005L677.978 103.241C677.742 105.131 679.868 107.258 681.049 108.675C681.758 109.148 682.703 110.565 682.703 110.565H772.714C774.368 110.565 780.983 118.125 780.747 119.306L777.203 142.223C776.731 145.058 772.478 148.602 769.643 148.602H623.168C620.333 148.602 617.261 145.058 617.734 142.223L638.76 9.45004C638.997 9.21379 639.469 8.50505 639.705 8.26878Z" fill="white"/>
<path d="M433.909 8.26878L439.107 3.54378C439.343 3.30754 440.288 3.07129 440.524 3.07129H568.572C588.89 3.07129 597.867 24.3338 595.032 41.5801C593.142 53.3926 584.873 61.4251 577.55 68.5127C572.352 73.7102 567.627 78.1989 566.918 82.6877C566.21 87.1764 573.297 93.5552 578.258 98.044C587.236 105.84 587.236 111.983 585.11 125.213C584.401 129.229 583.692 133.009 582.983 137.025C582.747 138.915 581.566 144.349 581.33 144.585L577.55 148.129C577.313 148.365 576.368 148.602 576.132 148.602H534.788C525.811 148.602 526.283 138.915 526.756 128.284C527.228 117.653 527.701 105.84 517.306 105.84H479.033C476.198 105.84 468.874 110.329 468.402 113.164L464.149 140.569C463.913 142.223 456.826 148.602 455.644 148.602H417.372C414.537 148.602 411.466 145.058 411.938 142.223L432.964 9.45004C433.201 9.21379 433.673 8.50505 433.909 8.26878ZM478.324 54.5739C477.616 59.5351 479.978 65.4414 485.412 65.4414H526.756C533.371 65.4414 536.442 60.0076 537.387 54.5739C538.332 48.9039 536.678 43.4701 530.3 43.4701H487.538C483.049 43.4701 479.033 50.5576 478.324 54.5739Z" fill="white"/>
<path d="M225.807 8.26878L231.004 3.54378C231.241 3.30754 232.186 3.07129 232.422 3.07129H275.183C286.996 3.07129 294.792 11.1038 302.824 19.3726C310.621 27.1688 318.417 35.2013 329.521 35.2013C339.68 35.2013 341.57 25.5151 343.223 17.4826C344.877 9.6863 346.058 3.07129 352.91 3.07129H389.528C389.765 3.07129 390.473 3.30754 390.71 3.54378L394.49 8.26878C394.726 8.50505 394.962 9.21379 394.962 9.45004L373.936 142.223C373.463 145.058 369.211 148.602 366.376 148.602H328.34C326.922 148.602 322.197 142.223 322.433 140.569L328.576 100.879C330.702 88.3577 286.523 64.4964 274.947 64.4964C272.821 64.4964 267.859 66.3864 267.387 68.9852L256.047 140.569C255.811 142.223 248.723 148.602 247.542 148.602H209.269C206.434 148.602 203.363 145.058 203.836 142.223L224.862 9.45004C225.098 9.21379 225.571 8.50505 225.807 8.26878Z" fill="white"/>
<path d="M72.4244 0C94.8682 0 117.076 0 139.52 0C152.277 0.236247 189.605 4.25251 186.297 24.8063L170.232 126.866C168.106 139.388 145.898 150.019 135.503 150.019H27.3006C17.1418 150.019 -1.75822 139.388 0.131781 126.866L16.6693 23.1525C19.7406 3.30751 60.8481 0.236247 72.4244 0ZM81.8744 111.51H91.0882C102.428 111.51 120.147 110.565 122.51 96.3902L128.888 55.2826C129.833 49.3763 123.691 41.8163 117.784 41.8163H79.5119C73.1332 41.8163 65.1007 49.1401 64.1556 55.2826L57.3044 98.0439C55.4144 110.329 71.0069 111.51 81.8744 111.51Z" fill="white"/>
</svg>
